<svg width="26" height="22" viewBox="0 0 26 22" fill="none" xmlns="http://www.w3.org/2000/svg">
<path d="M1.05026 10.001H24.9497C25.5298 10.001 26 10.4483 26 11.0001C26 11.552 25.5298 11.9993 24.9497 11.9993H1.05026C0.470184 11.9993 0 11.552 0 11.0001C0 10.4483 0.470184 10.001 1.05026 10.001Z" fill="white"/>
<path d="M1.05026 0H24.9497C25.5298 0 26 0.447355 26 0.999157C26 1.55096 25.5298 1.99831 24.9497 1.99831H1.05026C0.470184 1.99831 0 1.55096 0 0.999157C0 0.447355 0.470184 0 1.05026 0Z" fill="white"/>
<path d="M1.05026 20.002H24.9497C25.5298 20.002 26 20.4493 26 21.0011C26 21.553 25.5298 22.0003 24.9497 22.0003H1.05026C0.470184 22.0003 0 21.553 0 21.0011C0 20.4493 0.470184 20.002 1.05026 20.002Z" fill="white"/>
</svg>
