<svg width="20" height="20" viewBox="0 0 20 20" fill="none" xmlns="http://www.w3.org/2000/svg">
<path fill-rule="evenodd" clip-rule="evenodd" d="M2 10C2 5.58172 5.58172 2 10 2C14.4183 2 18 5.58172 18 10C18 14.4183 14.4183 18 10 18C5.58172 18 2 14.4183 2 10ZM10.75 7.02326C10.75 6.60904 10.4142 6.27326 10 6.27326C9.58579 6.27326 9.25 6.60904 9.25 7.02326V9.73241C9.25 10.1504 9.45888 10.5406 9.80662 10.7725L11.8165 12.1124C12.1612 12.3422 12.6268 12.249 12.8566 11.9044C13.0864 11.5598 12.9932 11.0941 12.6486 10.8643L10.75 9.59861V7.02326Z" fill="#EA6709"/>
</svg>
