<svg width="20" height="20" viewBox="0 0 20 20" fill="none" xmlns="http://www.w3.org/2000/svg">
<path fill-rule="evenodd" clip-rule="evenodd" d="M2 8.27143C2 5.91238 3.9158 4 6.27907 4H13.7209C16.0842 4 18 5.91238 18 8.27143V12.7286C18 15.0876 16.0842 17 13.7209 17H6.27907C3.9158 17 2 15.0876 2 12.7286V8.27143ZM6.44949 6.39473C6.1179 6.14649 5.64786 6.21405 5.39961 6.54563C5.15137 6.87722 5.21893 7.34726 5.55051 7.5955L8.07282 9.48385C9.04983 10.2153 10.392 10.2153 11.369 9.48385L13.8913 7.5955C14.2229 7.34726 14.2905 6.87722 14.0422 6.54563C13.794 6.21405 13.324 6.14649 12.9924 6.39473L10.4701 8.28308C10.026 8.61556 9.41588 8.61556 8.97179 8.28308L6.44949 6.39473Z" fill="#EA6709"/>
</svg>
