<svg width="20" height="20" viewBox="0 0 20 20" fill="none" xmlns="http://www.w3.org/2000/svg">
<path fill-rule="evenodd" clip-rule="evenodd" d="M20 10C20 15.5228 15.5228 20 10 20C4.47715 20 5.33895e-08 15.5228 1.19249e-07 10C1.85108e-07 4.47715 4.47715 -1.85108e-07 10 -1.19249e-07C15.5228 -5.33895e-08 20 4.47715 20 10ZM15.7821 7.25849C16.0594 6.98416 16.074 6.52394 15.8147 6.23055C15.5553 5.93717 15.1203 5.92173 14.8429 6.19606L8.69526 12.2771L6.157 9.76691C5.87964 9.49261 5.44458 9.50811 5.18528 9.80152C4.92598 10.0949 4.94063 10.5552 5.218 10.8295L8.22581 13.804C8.49009 14.0654 8.90062 14.0653 9.16487 13.8039L15.7821 7.25849Z" fill="#2A407B"/>
</svg>
