<svg width="96" height="96" viewBox="0 0 96 96" fill="none" xmlns="http://www.w3.org/2000/svg">
<path fill-rule="evenodd" clip-rule="evenodd" d="M0 48C0 74.5097 21.4903 96 48 96C74.5097 96 96 74.5097 96 48C96 21.4903 74.5097 0 48 0C21.4903 0 0 21.4903 0 48ZM33.626 40.4006L47.7604 55.6222L61.8948 40.4006C62.6464 39.5911 63.9119 39.5443 64.7213 40.2959C65.5307 41.0475 65.5776 42.3129 64.826 43.1224L49.9588 59.1332C48.7719 60.4114 46.7489 60.4114 45.562 59.1332L30.6948 43.1224C29.9432 42.3129 29.9901 41.0475 30.7995 40.2959C31.6089 39.5443 32.8744 39.5911 33.626 40.4006Z" fill="#2A407B"/>
</svg>
