<svg width="20" height="20" viewBox="0 0 20 20" fill="none" xmlns="http://www.w3.org/2000/svg">
<path fill-rule="evenodd" clip-rule="evenodd" d="M3 8.76423C3 5.02268 6.06336 2 9.82927 2C13.5952 2 16.6585 5.02268 16.6585 8.76423C16.6585 11.0913 15.3015 13.388 13.8633 15.0598C13.1355 15.9058 12.363 16.6201 11.6816 17.1281C11.3414 17.3816 11.0145 17.5909 10.7194 17.7395C10.4427 17.8788 10.1268 18 9.82927 18C9.53171 18 9.21579 17.8788 8.93915 17.7395C8.64405 17.5909 8.31712 17.3816 7.97697 17.1281C7.29558 16.6201 6.52309 15.9058 5.79527 15.0598C4.35705 13.388 3 11.0913 3 8.76423ZM9.82927 10.7805C8.53611 10.7805 7.4878 9.73218 7.4878 8.43902C7.4878 7.14587 8.53611 6.09756 9.82927 6.09756C11.1224 6.09756 12.1707 7.14587 12.1707 8.43902C12.1707 9.73218 11.1224 10.7805 9.82927 10.7805Z" fill="white"/>
</svg>
