<svg width="21" height="20" viewBox="0 0 21 20" fill="none" xmlns="http://www.w3.org/2000/svg">
<path d="M16.7774 17.3051C15.0402 19.0423 10.5914 17.41 6.84069 13.6593C3.08998 9.9086 1.45768 5.4598 3.19485 3.72262L4.33864 2.57883C5.12826 1.78921 6.42937 1.81008 7.24474 2.62545L9.01638 4.39708C9.83175 5.21246 9.85262 6.51356 9.063 7.30319L8.81732 7.54886C8.391 7.97519 8.34929 8.66295 8.74543 9.14299C9.12753 9.60603 9.53947 10.0672 9.98611 10.5139C10.4328 10.9605 10.894 11.3725 11.357 11.7546C11.8371 12.1507 12.5248 12.109 12.9511 11.6827L13.1968 11.437C13.9864 10.6474 15.2875 10.6682 16.1029 11.4836L17.8745 13.2553C18.6899 14.0706 18.7108 15.3717 17.9212 16.1614L16.7774 17.3051Z" fill="#2A407B" stroke="#2A407B" stroke-width="1.5"/>
</svg>
