<svg width="21" height="20" viewBox="0 0 21 20" fill="none" xmlns="http://www.w3.org/2000/svg">
<path fill-rule="evenodd" clip-rule="evenodd" d="M2.5 8.27143C2.5 5.91238 4.4158 4 6.77907 4H14.2209C16.5842 4 18.5 5.91238 18.5 8.27143V12.7286C18.5 15.0876 16.5842 17 14.2209 17H6.77907C4.4158 17 2.5 15.0876 2.5 12.7286V8.27143ZM6.94949 6.39473C6.6179 6.14649 6.14786 6.21405 5.89961 6.54563C5.65137 6.87722 5.71893 7.34726 6.05051 7.5955L8.57282 9.48385C9.54983 10.2153 10.892 10.2153 11.869 9.48385L14.3913 7.5955C14.7229 7.34726 14.7905 6.87722 14.5422 6.54563C14.294 6.21405 13.824 6.14649 13.4924 6.39473L10.9701 8.28308C10.526 8.61556 9.91588 8.61556 9.47179 8.28308L6.94949 6.39473Z" fill="#2A407B"/>
</svg>
