<svg width="195" height="40" viewBox="0 0 195 40" fill="none" xmlns="http://www.w3.org/2000/svg">
<path d="M113.454 30.5747C113.454 30.0071 113.05 29.5855 112.507 29.5855H102.346V15.5747C102.346 15.0071 101.943 14.5801 101.4 14.5801H97.3386C96.7954 14.5801 96.3867 15.0071 96.3867 15.5747V33.4071C96.3867 33.9747 96.7954 34.3963 97.3386 34.3963H112.507C113.05 34.3963 113.454 33.9747 113.454 33.4071V30.5747Z" fill="white"/>
<path d="M127.814 15.5747C127.814 15.0071 127.406 14.5801 126.868 14.5801H115.76C115.217 14.5801 114.809 15.0071 114.809 15.5747V18.4017C114.809 18.9693 115.217 19.3963 115.76 19.3963H118.332V29.5855H115.76C115.217 29.5855 114.809 30.0071 114.809 30.5747V33.4071C114.809 33.9747 115.217 34.3963 115.76 34.3963H126.868C127.406 34.3963 127.814 33.9747 127.814 33.4071V30.5747C127.814 30.0071 127.406 29.5855 126.868 29.5855H124.291V19.3963H126.868C127.406 19.3963 127.814 18.9693 127.814 18.4017V15.5747Z" fill="white"/>
<path d="M144.613 25.9044L137.841 15.5747C137.567 15.1476 137.024 14.5801 136.351 14.5801H131.742C131.204 14.5801 130.795 15.0071 130.795 15.5747V33.4071C130.795 33.9747 131.204 34.3963 131.742 34.3963H135.808C136.351 34.3963 136.755 33.9747 136.755 33.4071V23.072H137.024L143.801 33.4071C144.07 33.8287 144.613 34.3963 145.291 34.3963H149.895C150.438 34.3963 150.842 33.9747 150.842 33.4071V15.5747C150.842 15.0071 150.438 14.5801 149.895 14.5801H145.829C145.291 14.5801 144.882 15.0071 144.882 15.5747V25.9044H144.613Z" fill="white"/>
<path d="M173.329 15.5747C173.329 15.0071 172.921 14.5801 172.378 14.5801H155.854C155.311 14.5801 154.907 15.0071 154.907 15.5747V33.4071C154.907 33.9747 155.311 34.3963 155.854 34.3963H172.378C172.921 34.3963 173.329 33.9747 173.329 33.4071V30.5747C173.329 30.0071 172.921 29.5855 172.378 29.5855H160.867V26.7531H169.398C169.941 26.7531 170.35 26.3314 170.35 25.7639V22.9314C170.35 22.3639 169.941 21.9422 169.398 21.9422H160.867V19.3963H172.378C172.921 19.3963 173.329 18.9693 173.329 18.4017V15.5747Z" fill="white"/>
<path d="M181.86 20.3851C181.86 19.5365 182.672 18.6878 185.114 18.6878C187.142 18.6878 187.985 19.5365 188.228 19.9581C188.606 20.6662 189.04 21.0933 189.853 21.0933H193.241C193.919 21.0933 194.322 20.6662 194.322 19.9581C194.322 17.1311 191.342 14.0176 185.114 14.0176C178.476 14.0176 175.631 16.9851 175.631 20.3851C175.631 28.3095 188.771 25.623 188.771 28.45C188.771 29.2987 187.819 30.2933 185.114 30.2933C182.403 30.2933 181.591 29.4446 181.182 28.7365C180.804 28.0554 180.37 27.6014 179.558 27.6014H176.169C175.497 27.6014 175.088 28.0284 175.088 28.7365C175.088 31.85 178.068 34.9635 185.114 34.9635C192.02 34.9635 195 31.85 195 28.45C195 20.5257 181.86 23.2176 181.86 20.3851Z" fill="white"/>
<path d="M194.224 9.18848L141.114 9.18848C140.732 9.18848 140.478 8.89563 140.478 8.45635C140.478 8.01707 140.732 7.72422 141.114 7.72422L194.161 7.72422C194.543 7.72422 194.797 8.01707 194.797 8.45635C194.797 8.89563 194.543 9.18848 194.224 9.18848Z" fill="white"/>
<path d="M100.728 5.46601C102.207 5.46601 103.485 5.57483 104.562 5.79246C105.652 6.00503 106.482 6.31124 107.053 6.71107C107.637 7.11091 107.929 7.58161 107.929 8.12316C107.929 8.66471 107.637 9.13541 107.053 9.53525C106.482 9.93002 105.652 10.2337 104.562 10.4463C103.485 10.6538 102.207 10.7575 100.728 10.7575H96.5049V5.46601H100.728ZM100.728 10.1881C102.48 10.1881 103.816 10.0085 104.737 9.64912C105.658 9.28471 106.119 8.77606 106.119 8.12316C106.119 7.4652 105.652 6.95148 104.718 6.58201C103.796 6.21254 102.467 6.02781 100.728 6.02781H98.2759V10.1881H100.728Z" fill="white"/>
<path d="M118.283 9.5808H112.366L111.277 10.7575H109.408L114.313 5.49638H116.356L121.241 10.7575H119.373L118.283 9.5808ZM117.777 9.019L115.325 6.34666L112.872 9.019H117.777Z" fill="white"/>
<path d="M129.528 10.8107C128.27 10.8107 127.121 10.6968 126.083 10.469C125.045 10.2362 124.222 9.91484 123.612 9.50488C123.015 9.08986 122.717 8.62422 122.717 8.10798C122.717 7.59173 123.015 7.12863 123.612 6.71867C124.222 6.30364 125.045 5.98225 126.083 5.7545C127.121 5.52168 128.27 5.40527 129.528 5.40527C130.8 5.40527 131.954 5.52168 132.992 5.7545C134.03 5.98225 134.847 6.30111 135.444 6.71107C136.041 7.12103 136.34 7.58667 136.34 8.10798C136.34 8.62928 136.041 9.09492 135.444 9.50488C134.847 9.91484 134.03 10.2362 132.992 10.469C131.954 10.6968 130.8 10.8107 129.528 10.8107ZM129.528 10.2109C130.475 10.2109 131.325 10.1249 132.077 9.9528C132.843 9.78072 133.44 9.53525 133.868 9.21639C134.309 8.89753 134.53 8.52806 134.53 8.10798C134.53 7.68283 134.309 7.31336 133.868 6.99956C133.44 6.68071 132.849 6.43524 132.097 6.26315C131.344 6.09107 130.488 6.00503 129.528 6.00503C128.568 6.00503 127.712 6.09107 126.959 6.26315C126.207 6.43524 125.61 6.68071 125.169 6.99956C124.741 7.31336 124.526 7.68283 124.526 8.10798C124.526 8.52806 124.741 8.89753 125.169 9.21639C125.61 9.53525 126.207 9.78072 126.959 9.9528C127.725 10.1249 128.581 10.2109 129.528 10.2109Z" fill="white"/>
<path d="M88.1599 18.9867H77.9939V16.3381H88.1599V18.9867ZM88.1599 23.3721H77.9939V20.662H88.1599V23.3721ZM88.1599 27.7576H77.9939V25.0475H88.1599V27.7576ZM75.8472 14.5026V29.5623H90.3943V14.5026H83.1061C83.4747 13.665 83.8432 12.7595 84.2117 11.7925H92.968V9.79074H87.2416C87.9786 8.72517 88.7741 7.40706 89.476 6.24295L87.2708 5.56542C86.7502 6.79113 85.7734 8.56502 84.9136 9.79074H79.2807L80.8717 9.01466C80.474 7.98604 79.5206 6.50164 78.6666 5.40527L76.7656 6.24295C77.5318 7.33931 78.3917 8.76212 78.8187 9.79074H73.6421V11.7925H81.6672C81.5152 12.6918 81.2402 13.665 80.9946 14.5026H75.8472ZM72.3552 12.0204C71.4369 10.5668 69.4774 8.34329 67.8806 6.79113L66.1668 7.91829C67.7285 9.569 69.6295 11.8911 70.4893 13.3385L72.3552 12.0204ZM72.1388 16.9849H65.7105V19.2453H69.9337V29.1434C68.5883 29.6916 67.0266 31.0159 65.4648 32.6604L66.8394 34.5945C68.4363 32.6296 69.998 30.9173 71.0392 30.9173C71.7762 30.9173 72.7237 31.8535 74.0106 32.6604C76.0929 33.9169 78.7251 34.2434 82.3399 34.2434C85.2177 34.2434 90.5815 34.0463 92.7574 33.9169C92.8159 33.2086 93.1551 32.143 93.4008 31.5333C90.4586 31.8843 85.9255 32.1122 82.3691 32.1122C79.0643 32.1122 76.4614 31.8843 74.4668 30.7572C73.4257 30.1105 72.753 29.5623 72.1388 29.242V16.9849Z" fill="white"/>
<path d="M62.4238 0.422043V39.5311C62.4238 39.8124 62.0398 40 61.4638 40C60.8878 40 60.5037 39.8124 60.5037 39.5311V0.468933C60.5037 0.187572 60.8878 0 61.4638 0C62.0398 0 62.4238 0.187576 62.4238 0.422043Z" fill="white"/>
<path fill-rule="evenodd" clip-rule="evenodd" d="M27.4553 26.932C27.67 26.932 27.8758 27.021 28.0276 27.1796C28.1793 27.3382 28.2646 27.5533 28.2646 27.7775C28.2646 28.0018 28.1793 28.2169 28.0276 28.3754C27.8758 28.534 27.67 28.6231 27.4553 28.6231H24.422C24.2074 28.6231 24.0015 28.534 23.8498 28.3754C23.698 28.2169 23.6127 28.0018 23.6127 27.7775C23.6127 27.5533 23.698 27.3382 23.8498 27.1796C24.0015 27.021 24.2074 26.932 24.422 26.932H27.4553ZM13.0214 29.1614C12.5231 28.6407 11.8675 28.3167 11.1661 28.2445C10.4648 28.1723 9.76127 28.3565 9.17533 28.7656C8.58939 29.1746 8.15733 29.7833 7.95276 30.488C7.7482 31.1926 7.78379 31.9495 8.05347 32.6298C8.32315 33.31 8.81024 33.8716 9.43173 34.2187C10.0532 34.5658 10.7707 34.677 11.4618 34.5333C12.153 34.3897 12.7751 34 13.2222 33.4309C13.6692 32.8617 13.9136 32.1481 13.9136 31.4118C13.9141 30.9938 13.8356 30.5798 13.6825 30.1936C13.5294 29.8073 13.3047 29.4566 13.0214 29.1614ZM7.04284 28.6231L2.81057 28.6231L2.81057 30.5662H6.27386C6.39056 29.8674 6.6531 29.204 7.04284 28.6231ZM21.5758 29.1614C21.0774 28.6407 20.4218 28.3167 19.7205 28.2445C19.0192 28.1723 18.3156 28.3565 17.7297 28.7656C17.1437 29.1746 16.7117 29.7833 16.5071 30.488C16.3025 31.1926 16.3381 31.9495 16.6078 32.6298C16.8775 33.31 17.3646 33.8716 17.9861 34.2187C18.6076 34.5658 19.325 34.677 20.0162 34.5333C20.7073 34.3897 21.3294 34 21.7765 33.4309C22.2236 32.8617 22.4679 32.1481 22.4679 31.4118C22.4685 30.9938 22.39 30.5797 22.2369 30.1935C22.0838 29.8073 21.8591 29.4565 21.5758 29.1614ZM50.0476 29.1614C49.5493 28.6407 48.8936 28.3167 48.1923 28.2445C47.491 28.1723 46.7874 28.3565 46.2015 28.7656C45.6155 29.1746 45.1835 29.7833 44.9789 30.488C44.7743 31.1926 44.8099 31.9495 45.0796 32.6298C45.3493 33.31 45.8364 33.8716 46.4579 34.2187C47.0794 34.5658 47.7968 34.677 48.488 34.5333C49.1792 34.3897 49.8013 34 50.2483 33.4309C50.6954 32.8617 50.9397 32.1481 50.9397 31.4118C50.9404 30.9938 50.8619 30.5797 50.7087 30.1935C50.5556 29.8073 50.3309 29.4565 50.0476 29.1614ZM52.1813 12.4387L45.1666 12.4387V15.8553L54.0525 15.8553C54.026 15.812 54.0007 15.7681 53.9759 15.723L52.1813 12.4387ZM3.74993 10.2394C3.64187 10.2424 3.53434 10.2227 3.43367 10.1816C3.333 10.1405 3.24123 10.0787 3.16379 9.99992C3.08634 9.92113 3.02479 9.82693 2.98276 9.72288C2.94073 9.61883 2.91908 9.50703 2.91908 9.39409C2.91908 9.28115 2.94073 9.16935 2.98276 9.0653C3.02479 8.96125 3.08634 8.86705 3.16379 8.78826C3.24123 8.70947 3.333 8.64769 3.43367 8.60657C3.53434 8.56544 3.64187 8.5458 3.74993 8.54882L15.0889 8.54882C15.197 8.5458 15.3045 8.56544 15.4052 8.60657C15.5059 8.64769 15.5976 8.70947 15.6751 8.78826C15.7525 8.86705 15.8141 8.96125 15.8561 9.0653C15.8981 9.16935 15.9198 9.28115 15.9198 9.39409C15.9198 9.50703 15.8981 9.61883 15.8561 9.72288C15.8141 9.82693 15.7525 9.92113 15.6751 9.99992C15.5976 10.0787 15.5059 10.1405 15.4052 10.1816C15.3045 10.2227 15.197 10.2424 15.0889 10.2394L3.74993 10.2394ZM3.74993 14.104C3.64187 14.107 3.53434 14.0874 3.43367 14.0462C3.333 14.0051 3.24123 13.9433 3.16379 13.8645C3.08634 13.7858 3.02479 13.6916 2.98276 13.5875C2.94073 13.4835 2.91908 13.3717 2.91908 13.2587C2.91908 13.1458 2.94073 13.034 2.98276 12.9299C3.02479 12.8259 3.08634 12.7317 3.16379 12.6529C3.24123 12.5741 3.333 12.5123 3.43367 12.4712C3.53434 12.4301 3.64187 12.4104 3.74993 12.4134L9.41828 12.4134C9.52633 12.4104 9.63386 12.4301 9.73453 12.4712C9.83521 12.5123 9.92697 12.5741 10.0044 12.6529C10.0819 12.7317 10.1434 12.8259 10.1854 12.9299C10.2275 13.034 10.2491 13.1458 10.2491 13.2587C10.2491 13.3717 10.2275 13.4835 10.1854 13.5875C10.1434 13.6916 10.0819 13.7858 10.0044 13.8645C9.92697 13.9433 9.83521 14.0051 9.73453 14.0462C9.63386 14.0874 9.52633 14.107 9.41828 14.104H3.74993ZM57.5296 24.6304C57.4153 24.6118 57.2999 24.6027 57.1842 24.6033C56.7639 24.5943 56.353 24.7344 56.0187 25.0008C55.898 25.0832 55.7989 25.1956 55.7303 25.328C55.6617 25.4604 55.6258 25.6086 55.6258 25.7592C55.6258 25.9098 55.6617 26.058 55.7303 26.1904C55.7989 26.3228 55.898 26.4353 56.0187 26.5176C56.3528 26.7845 56.7638 26.9248 57.1842 26.9157C57.3048 26.9163 57.4251 26.906 57.544 26.885L57.5296 24.6304ZM57.5538 28.5864L57.5584 29.3081C57.5618 29.4742 57.5336 29.6394 57.4755 29.794C57.3867 30.025 57.2328 30.2223 57.0342 30.3597C56.8356 30.4971 56.6016 30.5681 56.3635 30.5632H52.4875C52.2999 29.4324 51.7362 28.4071 50.8958 27.668C50.0553 26.929 48.9922 26.5238 47.8937 26.5238C46.7953 26.5238 45.7321 26.929 44.8917 27.668C44.0513 28.4071 43.4876 29.4324 43.3 30.5632H40.2333L40.2333 8.35817L49.2567 8.35817C49.4678 8.35232 49.6763 8.40759 49.8591 8.51787C50.042 8.62815 50.1921 8.78914 50.2928 8.98303L51.2575 10.7482L44.3579 10.7482C44.1434 10.7482 43.9376 10.8372 43.7859 10.9956C43.6341 11.154 43.5488 11.369 43.5487 11.5931V16.7003C43.5487 16.8113 43.5696 16.9213 43.6103 17.0238C43.6509 17.1264 43.7105 17.2196 43.7857 17.2982C43.8608 17.3767 43.9501 17.439 44.0482 17.4815C44.1464 17.524 44.2517 17.5458 44.3579 17.5458L55.8892 17.5458L57.0294 18.4594C57.1759 18.5722 57.2946 18.7197 57.376 18.8898C57.4573 19.0599 57.4989 19.2477 57.4973 19.4378L57.5187 22.9314C57.407 22.9206 57.2951 22.9152 57.1831 22.9152C56.3924 22.9068 55.6225 23.1797 54.9999 23.6892C54.6912 23.9299 54.4405 24.2426 54.2679 24.6024C54.0952 24.9622 54.0053 25.3591 54.0053 25.7616C54.0053 26.1641 54.0952 26.561 54.2679 26.9208C54.4405 27.2806 54.6912 27.5933 54.9999 27.8341C55.6222 28.344 56.3923 28.6172 57.1831 28.6087C57.3067 28.6087 57.4302 28.6021 57.5532 28.5888L57.5538 28.5864ZM10.8676 32.3753C10.6846 32.3754 10.5057 32.3188 10.3535 32.2126C10.2013 32.1065 10.0827 31.9556 10.0126 31.7789C9.9425 31.6023 9.92413 31.4079 9.9598 31.2204C9.99547 31.0329 10.0836 30.8606 10.213 30.7254C10.3424 30.5902 10.5072 30.4982 10.6867 30.4609C10.8662 30.4236 11.0522 30.4428 11.2213 30.516C11.3903 30.5893 11.5347 30.7132 11.6363 30.8722C11.7379 31.0313 11.7921 31.2182 11.792 31.4094C11.7918 31.6655 11.6944 31.9111 11.5211 32.0922C11.3477 32.2733 11.1127 32.3751 10.8676 32.3753ZM19.4219 32.3753C19.239 32.3753 19.0601 32.3186 18.908 32.2123C18.7559 32.1061 18.6373 31.9551 18.5673 31.7785C18.4973 31.6019 18.479 31.4075 18.5148 31.22C18.5505 31.0325 18.6387 30.8603 18.7681 30.7252C18.8975 30.5901 19.0624 30.4981 19.2418 30.4608C19.4213 30.4236 19.6073 30.4428 19.7763 30.5161C19.9453 30.5893 20.0897 30.7133 20.1913 30.8723C20.2928 31.0313 20.347 31.2182 20.3469 31.4094C20.3469 31.5363 20.323 31.6619 20.2765 31.7792C20.23 31.8964 20.1618 32.0029 20.0759 32.0926C19.99 32.1823 19.8881 32.2534 19.7758 32.3019C19.6636 32.3504 19.5434 32.3753 19.4219 32.3753ZM47.8937 32.3753C47.7108 32.3753 47.5319 32.3186 47.3798 32.2123C47.2277 32.1061 47.1091 31.9551 47.0391 31.7785C46.9691 31.6019 46.9509 31.4075 46.9866 31.22C47.0223 31.0325 47.1105 30.8603 47.2399 30.7252C47.3693 30.5901 47.5342 30.4981 47.7136 30.4608C47.8931 30.4236 48.0791 30.4428 48.2481 30.5161C48.4171 30.5893 48.5615 30.7133 48.6631 30.8723C48.7647 31.0313 48.8188 31.2182 48.8187 31.4094C48.8187 31.5363 48.7948 31.6619 48.7483 31.7792C48.7018 31.8964 48.6337 32.0029 48.5478 32.0926C48.4619 32.1823 48.3599 32.2534 48.2477 32.3019C48.1354 32.3504 48.0152 32.3753 47.8937 32.3753ZM24.0162 30.5662L38.6153 30.5662V28.6231L30.103 28.6231C29.8884 28.6231 29.6826 28.534 29.5308 28.3754C29.379 28.2169 29.2938 28.0018 29.2938 27.7775C29.2938 27.5533 29.379 27.3382 29.5308 27.1796C29.6826 27.021 29.8884 26.932 30.103 26.932L38.6153 26.932L38.6153 5.40527L0 5.40527L0 26.9356H1.95698C1.97272 26.9356 1.98826 26.9356 2.00361 26.9356H4.05153L9.03609 26.9326C10.1688 26.4284 11.4462 26.4122 12.5903 26.8874C13.7344 27.3626 14.6525 28.2908 15.1448 29.4699C15.545 28.51 16.2303 27.7103 17.0994 27.189C17.9685 26.6678 18.975 26.4527 19.9702 26.5757C20.9653 26.6987 21.8961 27.1532 22.6248 27.8719C23.3535 28.5906 23.8414 29.5353 24.0162 30.5662Z" fill="white"/>
</svg>
