<svg width="20" height="20" viewBox="0 0 20 20" fill="none" xmlns="http://www.w3.org/2000/svg">
<path fill-rule="evenodd" clip-rule="evenodd" d="M16 20C18.2091 20 20 18.2091 20 16V4C20 1.79086 18.2091 0 16 0H4C1.79086 0 0 1.79086 0 4V16C0 18.2091 1.79086 20 4 20H16ZM10.9007 9.86661C11.0072 9.96551 11.0072 10.1341 10.9007 10.233L8.18986 12.7502C7.88632 13.0321 7.86875 13.5066 8.1506 13.8101C8.43245 14.1137 8.907 14.1313 9.21053 13.8494L11.9214 11.3322C12.667 10.6398 12.667 9.45977 11.9214 8.76742L9.21053 6.25021C8.907 5.96836 8.43245 5.98593 8.1506 6.28947C7.86875 6.593 7.88632 7.06755 8.18986 7.3494L10.9007 9.86661Z" fill="#F2F4F7"/>
</svg>
