<svg width="20" height="20" viewBox="0 0 20 20" fill="none" xmlns="http://www.w3.org/2000/svg">
<path fill-rule="evenodd" clip-rule="evenodd" d="M4 20C1.79086 20 0 18.2091 0 16L0 4C0 1.79086 1.79086 0 4 0H16C18.2091 0 20 1.79086 20 4V16C20 18.2091 18.2091 20 16 20H4ZM9.0993 9.86661C8.99279 9.96551 8.99279 10.1341 9.09931 10.233L11.8101 12.7502C12.1137 13.0321 12.1313 13.5066 11.8494 13.8101C11.5675 14.1137 11.093 14.1313 10.7895 13.8494L8.07863 11.3322C7.33301 10.6398 7.33301 9.45977 8.07863 8.76742L10.7895 6.25021C11.093 5.96836 11.5675 5.98593 11.8494 6.28947C12.1313 6.593 12.1137 7.06755 11.8101 7.3494L9.0993 9.86661Z" fill="#F2F4F7"/>
</svg>
