<svg width="24" height="24" viewBox="0 0 24 24" fill="none" xmlns="http://www.w3.org/2000/svg">
<g id="WeChat">
<g id="WeChat_2">
<rect id="Rectangle" width="24" height="24" rx="12" fill="#1AAD19"/>
<path id="Vector" fill-rule="evenodd" clip-rule="evenodd" d="M18.7308 17.33C19.8101 16.5478 20.5 15.3905 20.5 14.1049C20.5 11.7481 18.2074 9.83782 15.3795 9.83782C12.5516 9.83782 10.2592 11.7481 10.2592 14.1049C10.2592 16.4615 12.5516 18.3717 15.3795 18.3717C15.9639 18.3717 16.5279 18.2883 17.0509 18.1379C17.0997 18.123 17.1505 18.1154 17.2015 18.1155C17.2997 18.1155 17.3892 18.1453 17.4733 18.1941L18.5943 18.8412C18.6256 18.8593 18.6558 18.8731 18.6929 18.8731C18.7153 18.8731 18.7375 18.8687 18.7583 18.8601C18.779 18.8515 18.7978 18.8389 18.8136 18.823C18.8295 18.8071 18.8421 18.7883 18.8506 18.7676C18.8592 18.7469 18.8636 18.7246 18.8635 18.7022C18.8635 18.6602 18.8468 18.6179 18.8361 18.5777C18.8296 18.5536 18.6914 18.0384 18.6054 17.7169C18.5955 17.6809 18.5875 17.646 18.5875 17.6082C18.5875 17.5537 18.6004 17.5001 18.6254 17.4517C18.6503 17.4033 18.6864 17.3616 18.7308 17.33ZM13.6725 13.4222C13.2958 13.4222 12.9901 13.1166 12.9901 12.7394C12.9901 12.3623 13.2958 12.0566 13.6725 12.0566C14.0499 12.0566 14.3553 12.3623 14.3553 12.7394C14.3553 13.1165 14.0499 13.4222 13.6725 13.4222V13.4222ZM17.0863 13.4222C16.7093 13.4222 16.4036 13.1165 16.4036 12.7394C16.4036 12.3623 16.7093 12.0566 17.0863 12.0566C17.4634 12.0566 17.7689 12.3623 17.7689 12.7394C17.7689 13.1165 17.4634 13.4222 17.0863 13.4222ZM9.64448 5.12695C12.71 5.12695 15.2505 6.99766 15.7132 9.44375C15.6021 9.43806 15.4908 9.43509 15.3795 9.43484C12.2845 9.43484 9.7756 11.5258 9.7756 14.1047C9.7756 14.5397 9.84852 14.9605 9.98208 15.3598C9.87016 15.3648 9.75785 15.3678 9.64448 15.3678C8.94337 15.3678 8.26653 15.2674 7.63889 15.0871C7.58033 15.0691 7.51942 15.06 7.45818 15.06C7.34028 15.06 7.23324 15.096 7.13198 15.1544L5.78681 15.9311C5.74933 15.9527 5.71278 15.9693 5.66838 15.9693C5.64148 15.9693 5.61484 15.964 5.58999 15.9537C5.56513 15.9435 5.54255 15.9284 5.52353 15.9094C5.50451 15.8903 5.48942 15.8678 5.47914 15.8429C5.46885 15.818 5.46357 15.7914 5.46359 15.7645C5.46359 15.7138 5.48377 15.6632 5.49663 15.6148L5.77342 14.582C5.78517 14.5386 5.79502 14.4968 5.79502 14.4515C5.79507 14.3861 5.77949 14.3217 5.74958 14.2637C5.71968 14.2056 5.6763 14.1555 5.62309 14.1176C4.32756 13.179 3.5 11.7903 3.5 10.2475C3.5 7.41953 6.25087 5.12695 9.64448 5.12695ZM7.59617 9.42814C8.04888 9.42814 8.41553 9.06144 8.41553 8.60878C8.41553 8.1563 8.04888 7.7896 7.59617 7.7896C7.14391 7.7896 6.77703 8.1563 6.77703 8.60878C6.77703 9.06144 7.14386 9.42814 7.59617 9.42814ZM11.6927 9.42814C12.1452 9.42814 12.5121 9.06144 12.5121 8.60878C12.5121 8.1563 12.1453 7.7896 11.6927 7.7896C11.2401 7.7896 10.8734 8.1563 10.8734 8.60878C10.8734 9.06144 11.2401 9.42814 11.6927 9.42814Z" fill="white"/>
</g>
</g>
</svg>
